<!-- by TradingView --><svg width="56" height="56" viewBox="0 0 56 56" xmlns="http://www.w3.org/2000/svg"><path fill="#11282C" d="M0 0h56v56H0z"/><path fill-rule="evenodd" d="M33.4 28.1 31.7 25l-.44.35L33 28.48l.02 2.52h.6v-2.53L35.26 25h-.38l-1.48 3.1Zm7.3-2.75.48-.35L43 31h-.63l-.55-1.78h-1.97L39.31 31H39l1.7-5.65Zm-.72 3.42h1.7l-.86-2.85-.84 2.85Zm11.65 1.05V25H52v6h-.4l-3.22-4.97V31H48v-5.65l.56-.35 3.07 4.82Zm-26-4.82H26v6h-.4l-3.22-4.97V31H22v-5.65l.56-.35 3.07 4.82V25Zm-11.09 0c-.43 0-.86.14-1.23.4A3.1 3.1 0 0 0 12 28.03c0 1.64 1.1 2.97 2.46 2.97.43 0 .86-.14 1.23-.4A3.1 3.1 0 0 0 17 27.97c0-1.63-1.1-2.97-2.46-2.97Zm1.85 3.32c0 .77-.25 1.49-.72 2.03-.24.1-.49.14-.74.14-1.28 0-2.32-1.26-2.32-2.8 0-.78.25-1.5.72-2.03.24-.1.49-.15.74-.15 1.28 0 2.32 1.26 2.32 2.8ZM6.26 27.9c.16-.04.32-.1.47-.2.26-.17.57-.52.57-1.17 0-.5-.14-.9-.41-1.17-.3-.3-.64-.36-1.07-.36H4.77l-.77.57V31h1.96c1.34 0 1.54-.97 1.54-1.54 0-1.2-.9-1.5-1.24-1.56Zm-.41 2.6c.97 0 1.04-.84 1.04-1.1 0-.75-.44-1.22-1.16-1.22H4.6v2.32h1.24Zm-1.24-5v2.35h1c.8 0 1.09-.67 1.09-1.25 0-.73-.34-1.1-1.01-1.1H4.6Z" fill="#fff"/></svg>